# xmcd CD database file
#
# Track frame offsets:
#	150
#	16248
#	31844
#	44778
#	60698
#	73372
#	87367
#	99693
#	115393
#	135592
#	148570
#	164859
#	183135
#	198434
#	216245
#	229890
#	248329
#
# Disc length: 3558 seconds
#
# Revision: 0
# Processed by: cddbd v1.5.2PL0 Copyright (c) Steve Scherf et al.
# Submitted via: CDex 1.51
#
DISCID=fc0de411
DTITLE=Get up and dance Wkshop nr.51 - Get up and dance Wkshop nr.51
DYEAR=2007
DGENRE=Country
TTITLE0=Kate
TTITLE1=High Society Girl
TTITLE2=Crazy Cha
TTITLE3=Speed It Up
TTITLE4=Days Go By
TTITLE5=In Your Eyes
TTITLE6=Rockabilly Riot
TTITLE7=Kissy Kissy
TTITLE8=Don't feel like Dancin c
TTITLE9=Bosa Nova c
TTITLE10=Leaving of Liverpool c
TTITLE11=Captured by love
TTITLE12=Suga and pai
TTITLE13=GP's Bubba
TTITLE14=Banca Cha
TTITLE15=Money ,Money ,Money
TTITLE16=Disco Inferno
EXTD=YEAR: 2007
EXTT0=
EXTT1=
EXTT2=
EXTT3=
EXTT4=
EXTT5=
EXTT6=
EXTT7=
EXTT8=
EXTT9=
EXTT10=
EXTT11=
EXTT12=
EXTT13=
EXTT14=
EXTT15=
EXTT16=
PLAYORDER=
